<svg width="21" height="17" viewBox="0 0 21 17" fill="none" xmlns="http://www.w3.org/2000/svg">
<path fill-rule="evenodd" clip-rule="evenodd" d="M0.371345 1.88399C0.083313 2.49298 0.083313 3.28004 0.083313 4.85416V5.63541C0.083313 6.06688 0.433091 6.41666 0.864563 6.41666H1.12498C2.27557 6.41666 3.20831 7.3494 3.20831 8.49999C3.20831 9.65058 2.27557 10.5833 1.12498 10.5833H0.864563C0.433091 10.5833 0.083313 10.9331 0.083313 11.3646V12.1458C0.083313 13.7199 0.083313 14.507 0.371345 15.116C0.668096 15.7434 1.17322 16.2485 1.80065 16.5453C2.40964 16.8333 3.1967 16.8333 4.77082 16.8333H16.2291C17.8033 16.8333 18.5903 16.8333 19.1993 16.5453C19.8267 16.2485 20.3319 15.7434 20.6286 15.116C20.9166 14.507 20.9166 13.7199 20.9166 12.1458V11.3646C20.9166 10.9331 20.5669 10.5833 20.1354 10.5833H19.875C18.7244 10.5833 17.7916 9.65058 17.7916 8.49999C17.7916 7.3494 18.7244 6.41666 19.875 6.41666H20.1354C20.5669 6.41666 20.9166 6.06688 20.9166 5.63541V4.85416C20.9166 3.28004 20.9166 2.49298 20.6286 1.88399C20.3319 1.25656 19.8267 0.75144 19.1993 0.454688C18.5903 0.166656 17.8033 0.166656 16.2291 0.166656H4.77081C3.1967 0.166656 2.40964 0.166656 1.80065 0.454688C1.17322 0.75144 0.668096 1.25656 0.371345 1.88399ZM10.4432 6.42285C10.301 6.45425 10.2134 6.6808 10.0383 7.13389C9.93868 7.39156 9.88888 7.5204 9.7957 7.60802C9.76956 7.6326 9.74119 7.65449 9.71098 7.67339C9.60329 7.74075 9.46884 7.75325 9.19996 7.77824C8.74478 7.82054 8.51719 7.84169 8.44769 7.97636C8.4333 8.00425 8.42351 8.03445 8.41874 8.0657C8.3957 8.21658 8.56301 8.37455 8.89763 8.69048L8.99056 8.77821C9.147 8.92592 9.22522 8.99977 9.27046 9.09194C9.2976 9.14723 9.3158 9.20677 9.32433 9.26818C9.33854 9.37056 9.31564 9.4777 9.26983 9.69198L9.25346 9.76854C9.1713 10.1528 9.13023 10.3449 9.1815 10.4394C9.22756 10.5242 9.3124 10.5785 9.40613 10.5832C9.51046 10.5883 9.65748 10.464 9.95151 10.2154L9.95153 10.2154C10.1452 10.0516 10.2421 9.96965 10.3496 9.93766C10.4479 9.90842 10.5521 9.90842 10.6503 9.93766C10.7579 9.96965 10.8547 10.0516 11.0484 10.2154L11.0484 10.2154C11.3425 10.464 11.4895 10.5883 11.5938 10.5832C11.6876 10.5785 11.7724 10.5242 11.8185 10.4394C11.8697 10.3449 11.8287 10.1528 11.7465 9.76854L11.7301 9.69198C11.6843 9.4777 11.6614 9.37056 11.6756 9.26818C11.6842 9.20677 11.7024 9.14723 11.7295 9.09194C11.7747 8.99977 11.853 8.92592 12.0094 8.77822L12.0094 8.77821L12.1023 8.69048C12.4369 8.37455 12.6043 8.21658 12.5812 8.0657C12.5764 8.03445 12.5667 8.00425 12.5523 7.97636C12.4828 7.84169 12.2552 7.82054 11.8 7.77824C11.5311 7.75325 11.3967 7.74075 11.289 7.67339C11.2588 7.65449 11.2304 7.6326 11.2043 7.60802C11.1111 7.5204 11.0613 7.39156 10.9617 7.13389C10.7866 6.6808 10.699 6.45425 10.5567 6.42285C10.5193 6.41459 10.4806 6.41459 10.4432 6.42285Z" fill="white"/>
</svg>
