<svg width="23" height="19" viewBox="0 0 23 19" fill="none" xmlns="http://www.w3.org/2000/svg">
<path d="M3.63614 10.4877L10.8784 17.2911C11.1418 17.5385 11.2734 17.6622 11.4307 17.6842C11.4767 17.6906 11.5233 17.6906 11.5693 17.6842C11.7266 17.6622 11.8583 17.5385 12.1216 17.2911L19.3639 10.4877C21.4016 8.57354 21.649 5.42355 19.9352 3.21466L19.613 2.79932C17.5628 0.15686 13.4476 0.600019 12.007 3.61839C11.8035 4.04475 11.1966 4.04476 10.9931 3.61839C9.55249 0.600019 5.43723 0.156862 3.38704 2.79932L3.0648 3.21466C1.35101 5.42355 1.59846 8.57354 3.63614 10.4877Z" fill="white" stroke="white" stroke-width="2"/>
</svg>
